HIERARCHY
ROOT SpineBase
{
  OFFSET 0.000000 0.000000 0.000000
  CHANNELS 6 Xposition Yposition Zposition Zrotation Xrotation Yrotation
  JOINT SpineMid
  {
    OFFSET 0.000000 36.384742 0.000000
    CHANNELS 3 Zrotation Xrotation Yrotation
    JOINT SpineShoulder
    {
      OFFSET 0.028193 26.825604 -1.104641
      CHANNELS 3 Zrotation Xrotation Yrotation
      JOINT Neck
      {
        OFFSET -0.026884 8.857216 -0.731452
        CHANNELS 3 Zrotation Xrotation Yrotation
        JOINT Head
        {
          OFFSET 5.838776 9.937870 3.986261
          CHANNELS 3 Zrotation Xrotation Yrotation
          End Site
          {
            OFFSET 0 0 0
          }
        }
      }
      JOINT ShoulderLeft
      {
        OFFSET -15.157383 -4.500392 2.272539
        CHANNELS 3 Zrotation Xrotation Yrotation
        JOINT ElbowLeft
        {
          OFFSET 17.542329 -13.470347 -20.691524
          CHANNELS 3 Zrotation Xrotation Yrotation
          JOINT WristLeft
          {
            OFFSET 6.717085 -19.196327 -5.239804
            CHANNELS 3 Zrotation Xrotation Yrotation
            JOINT HandLeft
            {
              OFFSET -4.637568 1.158248 6.314547
              CHANNELS 3 Zrotation Xrotation Yrotation
              JOINT HandTipLeft
              {
                OFFSET -0.242327 -4.739902 2.374950
                CHANNELS 3 Zrotation Xrotation Yrotation
                End Site
                {
                  OFFSET 0 0 0
                }
              }
              JOINT ThumbLeft
              {
                OFFSET -3.916095 3.205220 0.534864
                CHANNELS 3 Zrotation Xrotation Yrotation
                End Site
                {
                  OFFSET 0 0 0
                }
              }
            }
          }
        }
      }
      JOINT ShoulderRight
      {
        OFFSET 6.636944 -5.374229 -15.976907
        CHANNELS 3 Zrotation Xrotation Yrotation
        JOINT ElbowRight
        {
          OFFSET 0.766358 -25.299412 -5.677694
          CHANNELS 3 Zrotation Xrotation Yrotation
          JOINT WristRight
          {
            OFFSET -0.460977 -24.241726 13.249425
            CHANNELS 3 Zrotation Xrotation Yrotation
            JOINT HandRight
            {
              OFFSET 2.188346 -7.445100 1.249049
              CHANNELS 3 Zrotation Xrotation Yrotation
              JOINT HandTipRight
              {
                OFFSET -0.202837 -6.083672 0.191990
                CHANNELS 3 Zrotation Xrotation Yrotation
                End Site
                {
                  OFFSET 0 0 0
                }
              }
              JOINT ThumbRight
              {
                OFFSET 3.374116 2.142836 -2.148608
                CHANNELS 3 Zrotation Xrotation Yrotation
                End Site
                {
                  OFFSET 0 0 0
                }
              }
            }
          }
        }
      }
    }
  }
  JOINT HipLeft
  {
    OFFSET -5.762167 0.910903 0.499296
    CHANNELS 3 Zrotation Xrotation Yrotation
    JOINT KneeLeft
    {
      OFFSET -16.206998 -30.482062 8.941961
      CHANNELS 3 Zrotation Xrotation Yrotation
      JOINT AnkleLeft
      {
        OFFSET 1.759829 -26.663265 -8.858783
        CHANNELS 3 Zrotation Xrotation Yrotation
        JOINT FootLeft
        {
          OFFSET 10.136147 -0.346971 -13.822657
          CHANNELS 3 Zrotation Xrotation Yrotation
          End Site
          {
            OFFSET 0 0 0
          }
        }
      }
    }
  }
  JOINT HipRight
  {
    OFFSET 4.376154 1.703454 -8.013957
    CHANNELS 3 Zrotation Xrotation Yrotation
    JOINT KneeRight
    {
      OFFSET -8.272068 -26.333241 -1.085903
      CHANNELS 3 Zrotation Xrotation Yrotation
      JOINT AnkleRight
      {
        OFFSET -6.565401 -31.574526 -0.298205
        CHANNELS 3 Zrotation Xrotation Yrotation
        JOINT FootRight
        {
          OFFSET -11.601033 -0.671425 7.789446
          CHANNELS 3 Zrotation Xrotation Yrotation
          End Site
          {
            OFFSET 0 0 0
          }
        }
      }
    }
  }
}
MOTION
Frames: 15
Frame Time: 0.033333
52.838569 66.049611 314.517575 -12.221017 -2.246461 -19.250024 0.377251 0.858503 18.591249 0.452445 0.149321 -0.440927 16.048759 6.391544 -4.406467 0.000000 0.000000 0.000000 -1.119157 -21.406634 -22.480812 53.655611 -24.310714 -16.157630 -77.308537 15.483801 145.985853 -2.912092 -39.371604 -77.134551 0.000000 0.000000 0.000000 0.000000 0.000000 0.000000 -36.419460 57.722154 36.663409 104.654603 -43.296394 94.364845 -7.187497 -22.156761 -19.656528 9.235713 26.418801 -8.442193 0.000000 0.000000 0.000000 0.000000 0.000000 0.000000 65.461474 47.931841 -15.065027 -82.965246 -30.462325 -20.071884 1.549954 -37.280345 25.992907 0.000000 0.000000 0.000000 147.612807 5.225224 -28.440501 -58.433994 -8.441495 8.368913 168.234768 0.067515 -66.589169 0.000000 0.000000 0.000000
53.459086 66.466882 316.607207 -11.919100 -1.915663 -18.999059 0.321394 0.816671 18.389786 0.433796 0.139687 -0.431423 19.953850 4.439060 -5.319607 0.000000 0.000000 0.000000 0.797817 -21.371522 -25.545107 54.052074 -26.274436 -12.755680 -73.376795 13.383606 146.496814 4.013246 -43.933916 -72.198267 0.000000 0.000000 0.000000 0.000000 0.000000 0.000000 -35.949620 59.985996 37.015307 108.562529 -41.990521 101.275951 -8.161197 -20.416452 -20.796631 5.378242 31.657228 -8.848341 0.000000 0.000000 0.000000 0.000000 0.000000 0.000000 64.190453 48.384266 -15.916720 -81.970120 -31.052600 -19.875386 -6.118880 -40.308198 11.552848 0.000000 0.000000 0.000000 146.167330 4.724777 -15.438676 -55.176999 -3.602862 10.658071 -179.712442 2.327155 -64.592020 0.000000 0.000000 0.000000
53.978179 66.983560 318.409089 -11.651062 -1.724905 -15.703234 0.339865 0.636874 15.111986 0.359776 0.224911 -0.419994 21.807118 5.851509 -7.344582 0.000000 0.000000 0.000000 1.720708 -22.171737 -29.377791 54.811130 -26.195005 -10.172459 -70.889995 12.149948 146.452782 20.957262 -49.785592 -59.210322 0.000000 0.000000 0.000000 0.000000 0.000000 0.000000 -38.461508 62.018935 39.748107 115.566677 -40.954245 109.669497 -8.090567 -17.989644 -21.888899 -12.400144 35.591044 0.637895 0.000000 0.000000 0.000000 0.000000 0.000000 0.000000 64.833647 46.323449 -19.349478 -81.294437 -32.085163 -19.976708 -17.182739 -40.302291 -10.077314 0.000000 0.000000 0.000000 137.604944 2.015159 6.819477 -50.191521 7.326077 6.732972 -154.904414 12.683206 -66.713941 0.000000 0.000000 0.000000
54.350640 67.612044 319.636622 -11.588934 -0.846724 -10.459316 0.410470 0.783736 9.981295 0.417024 0.066847 -0.419187 24.749406 4.645461 -8.453517 0.000000 0.000000 0.000000 1.994592 -23.822180 -32.450034 55.797494 -26.386841 -8.593476 -66.637415 10.122758 146.679592 25.567844 -51.520616 -57.437703 0.000000 0.000000 0.000000 0.000000 0.000000 0.000000 -43.836249 63.258396 44.454154 122.061283 -38.584972 116.706274 -10.831867 -18.199929 -22.788705 -18.261412 43.042478 4.097294 0.000000 0.000000 0.000000 0.000000 0.000000 0.000000 65.373659 42.043000 -22.539666 -80.108145 -33.174294 -19.766402 -27.106445 -32.716497 -38.766016 0.000000 0.000000 0.000000 115.868878 -7.711685 29.810132 -30.907625 17.863393 -4.654544 -133.553530 20.116483 -69.872471 0.000000 0.000000 0.000000
54.857533 68.181786 320.828951 -11.532784 0.155968 0.525846 0.595261 0.800367 -0.885296 0.492164 -0.069401 -0.413044 25.075888 1.747252 -6.946852 0.000000 0.000000 0.000000 1.994775 -25.815904 -35.963251 55.627683 -25.168941 -6.609616 -51.370505 3.295137 137.271713 58.549463 -49.444322 -38.978323 0.000000 0.000000 0.000000 0.000000 0.000000 0.000000 -47.017618 63.948417 47.165270 127.899407 -36.862876 122.754192 -12.278828 -18.839822 -23.514849 -11.511638 43.063508 1.528822 0.000000 0.000000 0.000000 0.000000 0.000000 0.000000 67.440150 32.841032 -29.061799 -79.041441 -35.054773 -19.865449 -25.332747 -31.702676 -39.993328 0.000000 0.000000 0.000000 76.370992 -30.044381 31.656585 3.325875 12.642551 -15.726241 -102.466252 26.360150 -78.025991 0.000000 0.000000 0.000000
55.327728 68.596878 321.627800 -11.532941 1.341137 12.660091 0.773384 0.686615 -12.891390 0.575291 -0.258963 -0.411721 26.128894 1.559050 -7.733790 0.000000 0.000000 0.000000 1.119102 -28.269364 -39.647039 55.962249 -23.565438 -5.819727 -33.437106 -16.364249 114.226451 117.306853 -29.767399 -13.505547 0.000000 0.000000 0.000000 0.000000 0.000000 0.000000 -48.059815 63.831477 47.752465 132.168030 -34.376305 127.126541 -7.829080 -17.288247 -24.242436 -12.093780 48.062724 -2.463737 0.000000 0.000000 0.000000 0.000000 0.000000 0.000000 68.929776 22.191130 -34.830947 -78.366567 -36.483340 -19.984234 -18.899405 -35.732521 -24.864165 0.000000 0.000000 0.000000 36.265805 -39.681895 8.076214 23.605196 4.778882 -16.271657 -76.404488 26.815603 -86.383006 0.000000 0.000000 0.000000
55.882757 68.909285 322.338524 -11.516565 2.564691 21.643510 0.896836 0.669567 -21.736195 0.605597 -0.341232 -0.403948 31.420645 -0.008500 -9.437549 0.000000 0.000000 0.000000 0.425821 -30.550821 -42.518317 56.079889 -22.550843 -5.083620 -33.354575 -28.361509 93.863321 -174.510612 -6.593115 0.492983 0.000000 0.000000 0.000000 0.000000 0.000000 0.000000 -48.875870 63.445083 48.025928 134.319976 -33.304792 129.028524 -12.523584 -35.868190 -25.283776 28.039702 51.748581 -36.200095 0.000000 0.000000 0.000000 0.000000 0.000000 0.000000 69.349351 14.214902 -38.631125 -77.961707 -37.629083 -20.150948 -5.969363 -37.997733 1.937867 0.000000 0.000000 0.000000 15.454518 -36.576844 -10.390208 20.407860 4.158053 -11.028516 -45.954277 25.422117 -97.198607 0.000000 0.000000 0.000000
56.319695 69.046361 322.734128 -11.560510 3.977102 26.506657 1.043494 0.844072 -26.428510 0.612151 -0.257346 -0.382705 46.035769 -9.440351 -7.296566 0.000000 0.000000 0.000000 -0.065858 -32.934664 -44.368383 55.156651 -21.955548 -3.991305 -35.318247 -32.782692 81.826802 -142.318147 -38.461017 171.125482 0.000000 0.000000 0.000000 0.000000 0.000000 0.000000 -46.799882 62.379751 45.551632 134.740619 -33.222777 129.221799 28.886378 -51.951009 -11.002958 17.578081 41.494143 -46.663641 0.000000 0.000000 0.000000 0.000000 0.000000 0.000000 69.189372 9.612186 -39.939541 -78.004214 -38.126707 -20.354100 1.070318 -38.154656 18.095522 0.000000 0.000000 0.000000 6.822318 -34.469569 -18.619064 17.319780 6.304769 -9.759614 -28.996121 20.672222 -103.521682 0.000000 0.000000 0.000000
56.672018 68.881918 323.164238 -11.643162 5.214366 29.610370 1.112385 0.894762 -29.393378 0.607290 -0.126003 -0.363056 100.898615 -30.251406 25.650423 0.000000 0.000000 0.000000 0.188521 -34.739970 -45.978291 54.705874 -20.820872 -2.745719 -34.528594 -33.017707 81.643900 -147.231737 -4.257222 115.282301 0.000000 0.000000 0.000000 0.000000 0.000000 0.000000 -43.635136 62.012487 42.714327 133.687814 -33.665058 129.111940 67.683335 -20.843104 -21.418217 -4.409857 8.599454 -27.797353 0.000000 0.000000 0.000000 0.000000 0.000000 0.000000 69.252809 6.641805 -40.648934 -78.466554 -38.464409 -20.762117 8.029217 -35.242551 32.460646 0.000000 0.000000 0.000000 3.717593 -34.768966 -22.662308 14.857965 7.876347 -9.285377 -20.668562 17.483576 -105.672451 0.000000 0.000000 0.000000
56.798844 68.359860 323.480181 -11.792084 6.326337 27.093280 1.092681 1.036549 -26.748283 0.564583 0.046341 -0.348613 141.796900 -18.337870 82.815500 0.000000 0.000000 0.000000 2.004092 -35.756519 -46.424468 55.486120 -19.581702 -1.743511 -32.215526 -28.953319 93.352985 -151.943217 3.185935 135.891983 0.000000 0.000000 0.000000 0.000000 0.000000 0.000000 -42.020778 61.903346 41.387190 133.787435 -33.543058 130.000518 30.161697 -19.668845 -23.336608 13.083577 28.448406 -34.978201 0.000000 0.000000 0.000000 0.000000 0.000000 0.000000 69.575847 8.483069 -38.494234 -79.859031 -37.826794 -21.389537 15.233654 -27.557055 47.295832 0.000000 0.000000 0.000000 8.106206 -38.407459 -17.842537 16.906426 7.158491 -10.380637 -26.519794 19.097781 -106.376471 0.000000 0.000000 0.000000
56.887475 68.028112 323.891381 -11.880195 7.192023 22.157738 0.961443 1.098686 -21.722690 0.497341 0.157510 -0.345228 144.278990 -10.051833 107.514565 0.000000 0.000000 0.000000 1.957970 -36.672815 -46.195001 55.435603 -20.036836 -1.955572 -32.726228 -22.310157 101.526365 -155.535798 -10.371637 165.624575 0.000000 0.000000 0.000000 0.000000 0.000000 0.000000 -41.065447 61.175824 40.301223 133.919837 -33.401884 129.952528 30.805997 -19.167613 -23.483971 2.171761 23.196275 -22.310977 0.000000 0.000000 0.000000 0.000000 0.000000 0.000000 69.191729 12.527154 -35.368465 -80.554347 -36.960735 -21.487021 16.195639 -27.698245 51.020400 0.000000 0.000000 0.000000 12.242423 -37.577356 -11.582203 15.935162 7.443408 -9.923666 -22.956772 17.330767 -107.728812 0.000000 0.000000 0.000000
56.867257 67.670711 324.216539 -11.910213 7.658923 19.764410 0.855123 1.031633 -19.290871 0.414520 0.246644 -0.348618 144.180604 -7.297200 115.807259 0.000000 0.000000 0.000000 2.135537 -36.974805 -45.774892 55.491582 -20.439327 -2.112819 -33.169621 -21.630878 101.947244 -155.965720 -10.393193 167.129573 0.000000 0.000000 0.000000 0.000000 0.000000 0.000000 -40.254248 60.709990 39.500375 133.780200 -33.458974 129.706564 20.092388 -26.073395 -21.822800 4.422128 36.406312 -26.241219 0.000000 0.000000 0.000000 0.000000 0.000000 0.000000 69.278973 14.593394 -34.033527 -81.311524 -36.696657 -21.848969 16.679604 -27.702561 52.681629 0.000000 0.000000 0.000000 14.400789 -37.088252 -8.514192 14.960448 7.762880 -9.615637 -20.728450 16.249274 -108.363605 0.000000 0.000000 0.000000
56.763114 67.339378 324.474438 -11.904026 7.671941 17.355537 0.736318 0.824218 -16.904757 0.313573 0.307553 -0.360095 143.673065 -10.149679 109.751338 0.000000 0.000000 0.000000 2.135879 -36.815615 -45.713364 55.461736 -20.340635 -2.257985 -32.694407 -23.536919 99.903614 -154.347573 -11.685308 165.717662 0.000000 0.000000 0.000000 0.000000 0.000000 0.000000 -39.525977 60.852268 39.130471 133.465185 -33.719513 129.659463 -4.703693 -35.555818 -23.681200 22.362869 60.222970 -40.096038 0.000000 0.000000 0.000000 0.000000 0.000000 0.000000 69.639846 16.759595 -32.979844 -82.189223 -36.283192 -22.228252 16.372500 -28.865061 51.975166 0.000000 0.000000 0.000000 16.637234 -36.207317 -5.545083 14.221222 7.670791 -9.259266 -20.687545 16.284083 -108.695004 0.000000 0.000000 0.000000
56.667955 67.162803 324.735109 -12.015044 7.780660 16.514891 0.726219 0.712843 -16.055807 0.303409 0.069819 -0.388772 146.856237 -14.425889 84.039596 0.000000 0.000000 0.000000 -0.985113 -37.975104 -47.888188 54.709133 -22.543811 -2.966210 -33.703502 -22.157399 93.510809 -152.917168 -12.911673 159.166606 0.000000 0.000000 0.000000 0.000000 0.000000 0.000000 -39.709645 60.118620 39.007609 133.031575 -33.840460 128.357965 -31.685539 -37.273814 -28.942620 51.149967 61.231944 -52.292949 0.000000 0.000000 0.000000 0.000000 0.000000 0.000000 69.531876 17.569881 -32.644951 -82.247589 -36.344015 -22.265637 14.455337 -31.702196 46.768868 0.000000 0.000000 0.000000 18.183528 -35.858317 -4.295183 13.728783 7.017297 -8.765079 -22.751947 17.365847 -108.222049 0.000000 0.000000 0.000000
56.499732 67.018568 324.810645 -12.127404 7.727736 16.241964 0.718115 0.528805 -15.797637 0.308378 -0.075846 -0.407143 142.051243 -16.056610 94.153770 0.000000 0.000000 0.000000 0.219312 -37.160825 -47.189606 55.027291 -22.738152 -2.395226 -33.756665 -22.015176 94.737852 -153.342998 -12.514624 160.009250 0.000000 0.000000 0.000000 0.000000 0.000000 0.000000 -39.137164 59.977630 38.611090 132.367848 -34.184633 127.597952 -39.107381 -35.343466 -29.849478 53.618730 58.105466 -48.302298 0.000000 0.000000 0.000000 0.000000 0.000000 0.000000 69.895649 17.865149 -32.598793 -82.858068 -36.360848 -22.611511 17.089476 -26.832721 51.426795 0.000000 0.000000 0.000000 19.170797 -35.738038 -3.746156 13.045062 6.935487 -8.511915 -23.265293 17.704884 -108.709432 0.000000 0.000000 0.000000
